<svg width="24" height="25" viewBox="0 0 24 25" fill="none" xmlns="http://www.w3.org/2000/svg">
<g id="Frame">
<path id="Vector" d="M21.7958 20.8529L17.3436 16.3988C18.6785 14.6592 19.3018 12.477 19.0869 10.2949C18.872 8.11269 17.8352 6.09396 16.1866 4.64816C14.538 3.20237 12.4013 2.43778 10.2097 2.50951C8.01817 2.58123 5.93595 3.4839 4.38546 5.03439C2.83497 6.58488 1.93231 8.66709 1.86058 10.8586C1.78886 13.0502 2.55344 15.187 3.99924 16.8355C5.44503 18.4841 7.46377 19.521 9.64594 19.7358C11.8281 19.9507 14.0103 19.3275 15.7499 17.9925L20.2058 22.4494C20.3105 22.5541 20.4347 22.6371 20.5714 22.6937C20.7081 22.7503 20.8547 22.7795 21.0027 22.7795C21.1507 22.7795 21.2972 22.7503 21.434 22.6937C21.5707 22.6371 21.6949 22.5541 21.7996 22.4494C21.9042 22.3448 21.9872 22.2205 22.0439 22.0838C22.1005 21.9471 22.1296 21.8005 22.1296 21.6525C22.1296 21.5046 22.1005 21.358 22.0439 21.2213C21.9872 21.0846 21.9042 20.9603 21.7996 20.8557L21.7958 20.8529ZM4.12487 11.1488C4.12487 9.88794 4.49876 8.6554 5.19925 7.60704C5.89975 6.55867 6.89539 5.74157 8.06026 5.25907C9.22514 4.77656 10.5069 4.65031 11.7436 4.89629C12.9802 5.14227 14.1161 5.74943 15.0077 6.64099C15.8992 7.53255 16.5064 8.66847 16.7524 9.9051C16.9984 11.1417 16.8721 12.4235 16.3896 13.5884C15.9071 14.7533 15.09 15.7489 14.0416 16.4494C12.9933 17.1499 11.7607 17.5238 10.4999 17.5238C8.80965 17.5221 7.18915 16.8499 5.99398 15.6547C4.79882 14.4595 4.12661 12.839 4.12487 11.1488Z" fill="black" fill-opacity="0.4"/>
</g>
</svg>
